<svg xmlns="http://www.w3.org/2000/svg" viewBox="0 0 64 64">
  <defs>
    <linearGradient id="bg" x1="0" y1="0" x2="1" y2="1">
      <stop offset="0" stop-color="#0a192f" />
      <stop offset="1" stop-color="#051325" />
    </linearGradient>
    <radialGradient id="blob" cx="35%" cy="35%" r="80%">
      <stop offset="0" stop-color="#7c4dff" stop-opacity="0.95" />
      <stop offset="0.55" stop-color="#2f80ed" stop-opacity="0.65" />
      <stop offset="1" stop-color="#0b2a5a" stop-opacity="0.95" />
    </radialGradient>
  </defs>

  <rect width="64" height="64" rx="14" fill="url(#bg)" />

  <g transform="translate(7 8)">
    <g fill="url(#blob)">
      <circle cx="24" cy="23" r="18" />
      <circle cx="24" cy="5" r="7" />
      <circle cx="37" cy="10" r="7" />
      <circle cx="43" cy="22" r="7" />
      <circle cx="39" cy="34" r="7" />
      <circle cx="28" cy="41" r="7" />
      <circle cx="16" cy="41" r="7" />
      <circle cx="6" cy="33" r="7" />
      <circle cx="4" cy="21" r="7" />
      <circle cx="10" cy="10" r="7" />
    </g>

    <g stroke="#fff" stroke-width="3.6" stroke-linecap="round" opacity="0.95" fill="none">
      <path d="M11 17 L34 35" />
      <path d="M16 12 L39 30" />
      <path d="M8 23 L28 39" />
      <path d="M22 9 L42 25" />
    </g>

    <g fill="#fff" opacity="0.98">
      <circle cx="11" cy="17" r="2.7" />
      <circle cx="16" cy="12" r="2.7" />
      <circle cx="8" cy="23" r="2.7" />
      <circle cx="22" cy="9" r="2.7" />

      <circle cx="34" cy="35" r="2.7" />
      <circle cx="39" cy="30" r="2.7" />
      <circle cx="28" cy="39" r="2.7" />
      <circle cx="42" cy="25" r="2.7" />
    </g>
  </g>
</svg>
